<svg width="12" height="13" viewBox="0 0 12 13" fill="none" xmlns="http://www.w3.org/2000/svg">
<path d="M11.25 8.75C11.6484 8.75 12 9.10156 12 9.5V11.75C12 12.1719 11.6484 12.5 11.25 12.5H0.75C0.328125 12.5 0 12.1719 0 11.75V9.5C0 9.10156 0.328125 8.75 0.75 8.75H3.86719L4.92188 9.82812C5.20312 10.1094 5.57812 10.25 6 10.25C6.39844 10.25 6.77344 10.1094 7.05469 9.82812L8.10938 8.75H11.25ZM10.125 11.1875C10.4297 11.1875 10.6875 10.9531 10.6875 10.625C10.6875 10.3203 10.4297 10.0625 10.125 10.0625C9.79688 10.0625 9.5625 10.3203 9.5625 10.625C9.5625 10.9531 9.79688 11.1875 10.125 11.1875ZM5.46094 9.28906L2.46094 6.28906C2.15625 6.00781 2.15625 5.51562 2.46094 5.23438C2.74219 4.92969 3.23438 4.92969 3.51562 5.23438L5.25 6.94531V1.25C5.25 0.851562 5.57812 0.5 6 0.5C6.39844 0.5 6.75 0.851562 6.75 1.25V6.94531L8.46094 5.23438C8.74219 4.92969 9.23438 4.92969 9.51562 5.23438C9.82031 5.51562 9.82031 6.00781 9.51562 6.28906L6.51562 9.28906C6.375 9.42969 6.1875 9.5 6 9.5C5.78906 9.5 5.60156 9.42969 5.46094 9.28906Z" fill="#FFFFFF" fill-opacity="1"/>
</svg>
