<svg width="14" height="13" viewBox="0 0 14 13" fill="none" xmlns="http://www.w3.org/2000/svg">
<path d="M12.8594 10.6406C13.3672 11.1094 13.3672 11.9297 12.8594 12.3984C12.625 12.6328 12.3125 12.75 12 12.75C11.6484 12.75 11.3359 12.6328 11.1016 12.3984L7 8.29688L2.85938 12.3984C2.625 12.6328 2.3125 12.75 2 12.75C1.64844 12.75 1.33594 12.6328 1.10156 12.3984C0.59375 11.9297 0.59375 11.1094 1.10156 10.6406L5.20312 6.5L1.10156 2.39844C0.59375 1.92969 0.59375 1.10938 1.10156 0.640625C1.57031 0.132812 2.39062 0.132812 2.85938 0.640625L7 4.74219L11.1016 0.640625C11.5703 0.132812 12.3906 0.132812 12.8594 0.640625C13.3672 1.10938 13.3672 1.92969 12.8594 2.39844L8.75781 6.53906L12.8594 10.6406Z" fill="#717171"/>
</svg>
